<svg width="30" height="30" viewBox="0 0 30 30" fill="none" xmlns="http://www.w3.org/2000/svg">
<path d="M14.375 3.75C17.5244 3.75 20.5449 5.00111 22.7719 7.22811C24.9989 9.4551 26.25 12.4756 26.25 15.625C26.25 18.7744 24.9989 21.7949 22.7719 24.0219C20.5449 26.2489 17.5244 27.5 14.375 27.5C11.2256 27.5 8.2051 26.2489 5.97811 24.0219C3.75111 21.7949 2.5 18.7744 2.5 15.625C2.5 12.4756 3.75111 9.4551 5.97811 7.22811C8.2051 5.00111 11.2256 3.75 14.375 3.75ZM14.375 5C11.5571 5 8.85456 6.11942 6.86199 8.11199C4.86942 10.1046 3.75 12.8071 3.75 15.625C3.75 18.4429 4.86942 21.1454 6.86199 23.138C8.85456 25.1306 11.5571 26.25 14.375 26.25C15.7703 26.25 17.1519 25.9752 18.441 25.4412C19.7301 24.9073 20.9014 24.1246 21.888 23.138C22.8746 22.1514 23.6573 20.9801 24.1912 19.691C24.7252 18.4019 25 17.0203 25 15.625C25 12.8071 23.8806 10.1046 21.888 8.11199C19.8954 6.11942 17.1929 5 14.375 5ZM13.75 8.75H15V15.525L20.875 18.9125L20.25 20L13.75 16.25V8.75Z" fill="#2F2C28"/>
</svg>
