<svg width="25" height="24" viewBox="0 0 25 24" fill="none" xmlns="http://www.w3.org/2000/svg">
<path d="M11.5 20H6.116C5.65533 20 5.271 19.8461 4.963 19.538C4.655 19.23 4.50067 18.8454 4.5 18.3841V5.61605C4.5 5.15538 4.65433 4.77105 4.963 4.46305C5.27167 4.15505 5.656 4.00072 6.116 4.00005H11.5V2.27005C11.5 2.12738 11.5477 2.00805 11.643 1.91205C11.7383 1.81605 11.8573 1.76838 12 1.76905C12.1427 1.76972 12.2617 1.81772 12.357 1.91305C12.4523 2.00838 12.5 2.12705 12.5 2.26905V21.7311C12.5 21.8731 12.4523 21.9917 12.357 22.087C12.2617 22.1824 12.1427 22.2304 12 22.2311C11.8573 22.2317 11.7383 22.1837 11.643 22.087C11.5477 21.9904 11.5 21.8717 11.5 21.7311V20ZM5.5 18H11.5V10.808L5.5 18ZM14.5 20V12L19.5 18V5.61605C19.5 5.46205 19.436 5.32072 19.308 5.19205C19.18 5.06338 19.0387 4.99938 18.884 5.00005H14.5V4.00005H18.885C19.345 4.00005 19.729 4.15438 20.037 4.46305C20.345 4.77172 20.4993 5.15605 20.5 5.61605V18.385C20.5 18.845 20.3457 19.2294 20.037 19.538C19.7283 19.8467 19.3443 20.0007 18.885 20H14.5Z" fill="#943900"/>
</svg>
