<svg width="24" height="24" viewBox="0 0 24 24" fill="none" xmlns="http://www.w3.org/2000/svg">
<g clip-path="url(#clip0_369_132)">
<path d="M24 9V10.5H13.7109C13.4297 9.57812 13.1484 8.66797 12.8672 7.76953C12.5859 6.87109 12.2969 5.95703 12 5.02734C11.7109 5.94922 11.4258 6.85938 11.1445 7.75781C10.8633 8.65625 10.5781 9.57031 10.2891 10.5H4.40625C5.20312 11.1094 5.99219 11.7188 6.77344 12.3281C7.55469 12.9375 8.34766 13.543 9.15234 14.1445C8.83984 15.1133 8.53516 16.0742 8.23828 17.0273C7.94141 17.9805 7.64453 18.9453 7.34766 19.9219L12 16.3359V18.2344L4.5 24L7.40625 14.6953L0 9H9.1875L12 0L14.8125 9H24ZM13.5 13.5H24V15H13.5V13.5ZM13.5 18H24V19.5H13.5V18Z" fill="#943900"/>
</g>
<defs>
<clipPath id="clip0_369_132">
<rect width="24" height="24" fill="white"/>
</clipPath>
</defs>
</svg>
